<svg width="298.0625px" height="141.2px" xmlns="http://www.w3.org/2000/svg" viewBox="100.96875 4.400000000000006 298.0625 141.2" style="background: rgba(255, 255, 255, 0);" preserveAspectRatio="xMidYMid"><defs><linearGradient id="editing-glowing-gradient" x1="0.9781523779815178" x2="0.021847622018482282" y1="0.3538141476386315" y2="0.6461858523613685"><stop offset="0" stop-color="#0056dd"></stop><stop offset="1" stop-color="#c85dce"></stop></linearGradient><filter id="editing-glowing" x="-100%" y="-100%" width="300%" height="300%"><feGaussianBlur in="SourceGraphic" result="blur" stdDeviation="6"></feGaussianBlur><feMerge><feMergeNode in="blur"></feMergeNode><feMergeNode in="SourceGraphic"></feMergeNode></feMerge></filter></defs><g filter="url(#editing-glowing)"><g transform="translate(148.62997555732727, 103.92000007629395)"><path d="M0.97 0L0.97-5.51L2.92-5.51L2.92-5.51Q8.26-5.51 8.26-11.42L8.26-11.42L8.26-56.70L15.39-56.70L15.39-11.10L15.39-11.10Q15.39-6.48 12.64-3.24L12.64-3.24L12.64-3.24Q9.88 0 5.51 0L5.51 0L0.97 0ZM37.83 0.57L37.83 0.57Q30.29 0.57 26.33-3.28L26.33-3.28L26.33-3.28Q22.36-7.13 22.36-14.01L22.36-14.01L22.36-42.69L22.36-42.69Q22.36-49.57 26.33-53.42L26.33-53.42L26.33-53.42Q30.29-57.27 37.83-57.27L37.83-57.27L37.83-57.27Q45.44-57.27 49.41-53.42L49.41-53.42L49.41-53.42Q53.38-49.57 53.38-42.69L53.38-42.69L53.38-14.01L53.38-14.01Q53.38-7.13 49.41-3.28L49.41-3.28L49.41-3.28Q45.44 0.57 37.83 0.57L37.83 0.57ZM37.83-4.78L37.83-4.78Q41.39-4.78 43.82-6.84L43.82-6.84L43.82-6.84Q46.25-8.91 46.25-12.64L46.25-12.64L46.25-44.06L46.25-44.06Q46.25-47.79 43.82-49.86L43.82-49.86L43.82-49.86Q41.39-51.92 37.83-51.92L37.83-51.92L37.83-51.92Q34.26-51.92 31.87-49.86L31.87-49.86L31.87-49.86Q29.48-47.79 29.48-44.06L29.48-44.06L29.48-12.64L29.48-12.64Q29.48-8.91 31.87-6.84L31.87-6.84L31.87-6.84Q34.26-4.78 37.83-4.78L37.83-4.78ZM69.26 0L62.13 0L62.13-56.70L74.03-56.70L87.24-7.70L87.24-56.70L94.45-56.70L94.45 0L84.24 0L69.26-51.52L69.26 0ZM108.22 0L101.33 0L114.13-56.70L124.90-56.70L137.21 0L130.57 0L126.60-16.69L111.86-16.69L108.22 0ZM118.99-51.35L113.08-22.19L125.39-22.19L119.56-51.35L118.99-51.35ZM148.63 0L142.16 0L142.16-8.34L148.63-8.34L148.63 0ZM170.99 0L170.99-56.70L184.76-56.70L184.76-56.70Q192.29-56.70 196.02-53.26L196.02-53.26L196.02-53.26Q199.75-49.82 199.75-42.44L199.75-42.44L199.75-42.44Q199.75-38.39 198.25-35.03L198.25-35.03L198.25-35.03Q196.75-31.67 194.48-30.13L194.48-30.13L194.48-30.13Q197.64-28.43 199.71-25.03L199.71-25.03L199.71-25.03Q201.77-21.63 201.77-17.25L201.77-17.25L201.77-17.25Q201.77-9.80 198.09-4.90L198.09-4.90L198.09-4.90Q194.40 0 183.55 0L183.55 0L170.99 0ZM178.12-32.97L183.22-32.97L183.22-32.97Q188.08-32.97 190.75-35.44L190.75-35.44L190.75-35.44Q193.43-37.91 193.43-42.61L193.43-42.61L193.43-42.61Q193.43-47.22 190.84-49.29L190.84-49.29L190.84-49.29Q188.24-51.35 183.22-51.35L183.22-51.35L178.12-51.35L178.12-32.97ZM178.12-5.35L183.14-5.35L183.14-5.35Q189.05-5.35 192.01-8.14L192.01-8.14L192.01-8.14Q194.97-10.94 194.97-17.01L194.97-17.01L194.97-17.01Q194.97-22.44 191.48-24.95L191.48-24.95L191.48-24.95Q188.00-27.46 183.22-27.46L183.22-27.46L178.12-27.46L178.12-5.35Z" fill="url(#editing-glowing-gradient)"></path></g></g><style>text {
  font-size: 64px;
  font-family: Arial Black;
  dominant-baseline: central;
  text-anchor: middle;
}</style></svg>